<svg width="316" height="160" viewBox="0 0 316 160" fill="none" xmlns="http://www.w3.org/2000/svg">
<path d="M265.582 45.5312L265.441 38.1133L306.047 37.2344L305.906 43.9492L289.488 44.582L289.98 88.9492L282.211 89.0898V44.8633L265.582 45.5312Z" fill="black"/>
<path d="M275.648 88.8086L267.352 90.0039C265.969 85.2227 264.504 80.4766 262.957 75.7656L234.656 76.9961C232.969 81.4258 231.363 85.9141 229.84 90.4609L221.859 89.3711C225.164 80.5117 228.82 71.793 232.828 63.2148C236.859 54.6367 241.148 46.1406 245.695 37.7266L255.539 37.9023C259.57 46.0352 263.25 54.332 266.578 62.793C269.906 71.2305 272.93 79.9023 275.648 88.8086ZM249.879 43.5625C247.512 48.0625 245.273 52.5859 243.164 57.1328C241.055 61.6562 239.039 66.2383 237.117 70.8789L260.883 69.8594C259.289 65.3594 257.578 60.9414 255.75 56.6055C253.922 52.2695 251.965 47.9219 249.879 43.5625Z" fill="black"/>
<path d="M228.328 62.1602C228.328 65.418 227.766 68.3711 226.641 71.0195C225.492 73.6445 223.945 75.9883 222 78.0508C220.078 80.0898 217.828 81.8359 215.25 83.2891C213.961 84.0156 212.637 84.6836 211.277 85.293C209.918 85.9023 208.523 86.4414 207.094 86.9102C204.234 87.8477 201.316 88.5391 198.34 88.9844C195.363 89.4297 192.492 89.6523 189.727 89.6523C188.789 89.6523 187.863 89.6289 186.949 89.582C186.035 89.5352 185.168 89.4414 184.348 89.3008L182.977 37.0938C186.633 36.8125 189.973 36.6719 192.996 36.6719C194.309 36.6719 195.633 36.6953 196.969 36.7422C198.305 36.7891 199.664 36.8594 201.047 36.9531C203.812 37.1641 206.496 37.5859 209.098 38.2188C211.723 38.8281 214.207 39.707 216.551 40.8555C218.871 42.0039 220.91 43.5156 222.668 45.3906C224.402 47.2891 225.773 49.6094 226.781 52.3516C227.812 55.0938 228.328 58.3633 228.328 62.1602ZM221.719 61.8086C221.648 59.5586 221.262 57.4961 220.559 55.6211C219.855 53.793 218.895 52.1758 217.676 50.7695C216.48 49.3398 215.074 48.1211 213.457 47.1133C212.66 46.5977 211.816 46.1406 210.926 45.7422C210.059 45.3203 209.156 44.9453 208.219 44.6172C206.344 43.9609 204.375 43.4805 202.312 43.1758C200.25 42.8711 198.176 42.7188 196.09 42.7188C195.199 42.7188 194.25 42.7539 193.242 42.8242C192.258 42.8711 191.238 42.9531 190.184 43.0703L191.273 82.832C191.461 82.8555 191.66 82.8789 191.871 82.9023C192.082 82.9023 192.293 82.9023 192.504 82.9023H193.699C196.043 82.9023 198.375 82.6914 200.695 82.2695C205.453 81.4023 209.602 79.7617 213.141 77.3477C214.898 76.1758 216.434 74.793 217.746 73.1992C219.035 71.6523 220.031 69.9297 220.734 68.0312C221.461 66.1094 221.789 64.0352 221.719 61.8086Z" fill="black"/>
<path d="M177.352 63.8828C177.375 64.9609 177.34 66.0391 177.246 67.1172C177.176 68.1953 177.059 69.2617 176.895 70.3164C176.543 72.4492 175.992 74.4766 175.242 76.3984C174.516 78.2969 173.566 80.043 172.395 81.6367C171.223 83.2773 169.852 84.6719 168.281 85.8203C166.711 87.0156 164.906 87.9414 162.867 88.5977C160.828 89.2539 158.578 89.582 156.117 89.582C153.633 89.582 151.453 89.1953 149.578 88.4219C147.703 87.625 146.074 86.5586 144.691 85.2227C143.309 83.8633 142.137 82.3047 141.176 80.5469C140.215 78.7656 139.453 76.9141 138.891 74.9922C138.305 73.0469 137.871 71.0781 137.59 69.0859C137.309 67.0703 137.145 65.1484 137.098 63.3203C137.074 62.1484 137.074 60.9297 137.098 59.6641C137.121 58.3984 137.168 57.0742 137.238 55.6914C137.355 53.3242 137.566 50.5703 137.871 47.4297C138.199 44.2891 138.691 40.9375 139.348 37.375L146.977 38.4648C146.438 40.7852 146.004 43.0234 145.676 45.1797C145.348 47.3359 145.09 49.3633 144.902 51.2617C144.715 53.1602 144.586 54.8945 144.516 56.4648C144.469 58.0352 144.445 59.3828 144.445 60.5078C144.445 61.1641 144.457 61.8555 144.48 62.582C144.527 63.3086 144.574 64.082 144.621 64.9023C144.738 66.5195 144.949 68.1602 145.254 69.8242C145.559 71.4883 146.004 73.1172 146.59 74.7109C147.152 76.3281 147.902 77.7344 148.84 78.9297C149.777 80.1484 150.926 81.1445 152.285 81.918C153.645 82.668 155.262 83.043 157.137 83.043C161.051 83.043 164.145 81.3203 166.418 77.875C167.52 76.2109 168.352 74.1953 168.914 71.8281C169.5 69.4609 169.77 66.8125 169.723 63.8828C169.699 61.5156 169.559 58.9844 169.301 56.2891C169.113 53.9453 168.82 51.2617 168.422 48.2383C168.023 45.2148 167.473 42.0039 166.77 38.6055L174.258 37.5859C175.008 41.4531 175.582 44.9922 175.98 48.2031C176.379 51.3906 176.684 54.1562 176.895 56.5C177.012 57.8594 177.105 59.1602 177.176 60.4023C177.27 61.6211 177.328 62.7812 177.352 63.8828Z" fill="black"/>
<path d="M136.074 63.1445C136.074 65.6523 135.758 68.0547 135.125 70.3516C133.883 74.9453 131.598 78.9531 128.27 82.375C126.605 84.0859 124.812 85.5039 122.891 86.6289C120.898 87.8242 118.766 88.75 116.492 89.4062C114.242 90.0625 111.898 90.3906 109.461 90.3906C106.953 90.3906 104.598 90.0625 102.395 89.4062C97.8477 88.0938 93.9336 85.75 90.6523 82.375C89.1055 80.7812 87.7227 78.9414 86.5039 76.8555C85.3555 74.8398 84.4648 72.6836 83.832 70.3867C83.1992 68.0664 82.8828 65.6523 82.8828 63.1445C82.8828 60.6367 83.1992 58.2227 83.832 55.9023C85.0977 51.2383 87.3711 47.2305 90.6523 43.8789C92.2461 42.2617 94.0391 40.8438 96.0312 39.625C98 38.4531 100.121 37.5508 102.395 36.918C104.668 36.2617 107.023 35.9336 109.461 35.9336C111.898 35.9336 114.254 36.25 116.527 36.8828C121.074 38.1953 124.988 40.5273 128.27 43.8789C129.887 45.5195 131.281 47.3594 132.453 49.3984C133.625 51.4141 134.516 53.582 135.125 55.9023C135.758 58.2227 136.074 60.6367 136.074 63.1445ZM129.113 63.1445C129.113 61.3164 128.879 59.5234 128.41 57.7656C127.449 54.2969 125.762 51.3203 123.348 48.8359C122.176 47.6172 120.852 46.5625 119.375 45.6719C116.352 43.8438 113.047 42.9297 109.461 42.9297C106.742 42.9297 104.199 43.4688 101.832 44.5469C99.4648 45.6016 97.3906 47.043 95.6094 48.8711C93.8281 50.6992 92.4219 52.8438 91.3906 55.3047C90.3828 57.7422 89.8789 60.3555 89.8789 63.1445C89.8789 65.9336 90.3828 68.5586 91.3906 71.0195C92.4219 73.4805 93.8281 75.625 95.6094 77.4531C97.3906 79.2812 99.4648 80.7344 101.832 81.8125C104.199 82.8672 106.742 83.3945 109.461 83.3945C111.266 83.3945 113.012 83.1484 114.699 82.6562C118.004 81.7188 120.887 79.9844 123.348 77.4531C124.543 76.2109 125.574 74.8516 126.441 73.375C127.285 71.875 127.941 70.2695 128.41 68.5586C128.879 66.8242 129.113 65.0195 129.113 63.1445Z" fill="black"/>
<path d="M87.6484 88.8086L79.3516 90.0039C77.9688 85.2227 76.5039 80.4766 74.957 75.7656L46.6562 76.9961C44.9688 81.4258 43.3633 85.9141 41.8398 90.4609L33.8594 89.3711C37.1641 80.5117 40.8203 71.793 44.8281 63.2148C48.8594 54.6367 53.1484 46.1406 57.6953 37.7266L67.5391 37.9023C71.5703 46.0352 75.25 54.332 78.5781 62.793C81.9062 71.2305 84.9297 79.9023 87.6484 88.8086ZM61.8789 43.5625C59.5117 48.0625 57.2734 52.5859 55.1641 57.1328C53.0547 61.6562 51.0391 66.2383 49.1172 70.8789L72.8828 69.8594C71.2891 65.3594 69.5781 60.9414 67.75 56.6055C65.9219 52.2695 63.9648 47.9219 61.8789 43.5625Z" fill="black"/>
<path d="M41.9062 69.8594C41.9062 72.7656 41.4023 75.4258 40.3945 77.8398C39.4102 80.2305 38.0156 82.293 36.2109 84.0273C34.4297 85.7852 32.3086 87.1797 29.8477 88.2109C27.4102 89.2422 24.7617 89.8398 21.9023 90.0039C18.5977 90.2148 15.6914 89.7812 13.1836 88.7031C10.6992 87.625 8.61328 86.0781 6.92578 84.0625C5.21484 82.0469 3.91406 79.6445 3.02344 76.8555C2.13281 74.0664 1.65234 71.043 1.58203 67.7852L9 66.9766C8.92969 69.1094 9.04688 70.9727 9.35156 72.5664C9.67969 74.1602 10.1367 75.5312 10.7227 76.6797C11.2852 77.8281 11.9531 78.7773 12.7266 79.5273C13.5 80.2773 14.2969 80.8867 15.1172 81.3555C17.0859 82.457 19.2891 82.9961 21.7266 82.9727C23.5781 82.832 25.1836 82.4805 26.543 81.918C27.9258 81.3789 29.0977 80.6875 30.0586 79.8438C31.0195 78.9766 31.8164 78.0039 32.4492 76.9258C33.0586 75.8711 33.5625 74.7109 33.9609 73.4453C34.3125 72.2031 34.5586 70.9258 34.6992 69.6133C34.8398 68.3008 34.9102 66.9883 34.9102 65.6758C34.9102 64.9961 34.8984 64.2461 34.875 63.4258C34.875 62.6055 34.8633 61.7148 34.8398 60.7539C34.7695 58.8555 34.6992 56.8633 34.6289 54.7773C34.5586 52.6914 34.4648 50.6172 34.3477 48.5547C34.3008 47.5234 34.2422 46.5508 34.1719 45.6367C34.125 44.6992 34.0781 43.8203 34.0312 43C33.9844 42.25 33.9258 41.4531 33.8555 40.6094C33.7852 39.7656 33.7148 39.0508 33.6445 38.4648C33.5977 37.8789 33.5391 37.5859 33.4688 37.5859L41.0977 37.4453C41.1445 37.4922 41.2031 38.0547 41.2734 39.1328C41.3203 40.2344 41.3672 41.6875 41.4141 43.4922C41.4844 45.2734 41.5547 47.3125 41.625 49.6094C41.6484 50.7578 41.6719 51.918 41.6953 53.0898C41.7188 54.2617 41.7422 55.4453 41.7656 56.6406C41.8125 59.0547 41.8477 61.4102 41.8711 63.707C41.8945 66.0039 41.9062 68.0547 41.9062 69.8594Z" fill="black"/>
<path d="M132.363 147.387L132.015 113.672L136.526 113.487L136.485 116.481C137.265 115.716 138.078 115.128 138.926 114.718C139.773 114.294 140.553 113.973 141.264 113.754C142.139 113.494 142.952 113.337 143.704 113.282C144.647 113.282 145.57 113.412 146.473 113.672C148.318 114.205 149.945 115.169 151.354 116.563C152.051 117.233 152.646 117.992 153.138 118.84C153.63 119.674 154.006 120.583 154.266 121.567C154.539 122.538 154.655 123.557 154.614 124.623C154.573 125.771 154.396 126.879 154.081 127.945C153.452 130.01 152.44 131.746 151.046 133.154C150.376 133.852 149.651 134.439 148.872 134.918C147.286 135.902 145.659 136.395 143.991 136.395C143.157 136.381 142.31 136.258 141.448 136.025C140.696 135.834 139.869 135.533 138.967 135.123C138.064 134.727 137.176 134.152 136.301 133.4L136.178 147.305L132.363 147.387ZM150 125.013C150.109 122.935 149.528 121.164 148.257 119.701C147.642 119.004 146.91 118.45 146.062 118.04C145.215 117.63 144.285 117.432 143.273 117.445C141.619 117.473 140.17 118.006 138.926 119.045C137.695 120.07 136.861 121.314 136.424 122.777L136.383 126.674C136.588 127.576 136.909 128.369 137.347 129.053C137.798 129.736 138.317 130.304 138.905 130.755C140.108 131.685 141.455 132.163 142.945 132.19C143.902 132.218 144.798 132.047 145.632 131.678C146.479 131.309 147.218 130.796 147.847 130.14C148.476 129.483 148.975 128.718 149.344 127.843C149.727 126.968 149.945 126.024 150 125.013Z" fill="black"/>
<path d="M181.563 125.054C181.563 126.776 181.276 128.369 180.702 129.832C180.128 131.295 179.342 132.566 178.344 133.646C177.346 134.727 176.177 135.567 174.837 136.169C173.497 136.784 172.068 137.092 170.551 137.092C167.447 137.092 164.87 135.984 162.819 133.77C161.821 132.717 161.035 131.452 160.461 129.976C159.887 128.499 159.6 126.858 159.6 125.054C159.6 123.235 159.887 121.588 160.461 120.111C161.035 118.621 161.821 117.35 162.819 116.297C163.804 115.244 164.959 114.431 166.285 113.856C167.611 113.282 169.033 112.995 170.551 112.995C172.068 112.995 173.497 113.303 174.837 113.918C176.177 114.52 177.346 115.354 178.344 116.42C179.342 117.5 180.128 118.778 180.702 120.255C181.276 121.718 181.563 123.317 181.563 125.054ZM177.236 125.013C177.236 124.028 177.113 123.03 176.867 122.019C176.621 121.007 176.231 120.104 175.698 119.312C175.165 118.505 174.475 117.855 173.627 117.363C172.779 116.857 171.754 116.604 170.551 116.604C169.389 116.604 168.391 116.857 167.557 117.363C166.723 117.855 166.039 118.505 165.506 119.312C164.973 120.104 164.583 121.007 164.337 122.019C164.091 123.03 163.968 124.028 163.968 125.013C163.968 125.997 164.098 126.988 164.357 127.986C164.631 128.971 165.041 129.866 165.588 130.673C166.135 131.466 166.818 132.122 167.639 132.642C168.473 133.147 169.443 133.4 170.551 133.4C171.713 133.4 172.711 133.147 173.545 132.642C174.393 132.122 175.09 131.466 175.637 130.673C176.184 129.866 176.587 128.971 176.847 127.986C177.106 126.988 177.236 125.997 177.236 125.013Z" fill="black"/>
<path d="M207.477 121.937L203.437 123.454C203.423 122.292 203.259 121.349 202.944 120.624C202.644 119.899 202.24 119.353 201.734 118.983C201.256 118.628 200.716 118.464 200.114 118.491C199.718 118.56 199.314 118.717 198.904 118.963C198.48 119.223 198.036 119.564 197.571 119.988C197.12 120.412 196.669 120.884 196.218 121.403C195.985 121.663 195.76 121.93 195.541 122.203C195.322 122.477 195.104 122.75 194.885 123.023C194.461 123.57 194.058 124.124 193.675 124.685C193.292 125.231 192.95 125.73 192.649 126.182C192.663 126.742 192.677 127.385 192.69 128.109C192.704 128.82 192.718 129.524 192.731 130.222C192.759 130.905 192.779 131.486 192.793 131.965C192.82 132.826 192.848 133.605 192.875 134.303C192.902 134.986 192.937 135.54 192.978 135.964L188.568 136.518L188.158 125.013C188.131 124.233 188.104 123.399 188.076 122.511C188.049 121.608 188.021 120.761 187.994 119.968C187.967 119.161 187.946 118.525 187.933 118.061C187.878 116.133 187.837 114.684 187.81 113.713L192.485 113.631C192.499 114.055 192.506 114.479 192.506 114.902C192.506 115.312 192.513 115.736 192.526 116.174C192.526 116.611 192.526 117.035 192.526 117.445C192.526 117.842 192.533 118.218 192.547 118.573C192.561 118.997 192.567 119.421 192.567 119.845C192.567 120.255 192.567 120.658 192.567 121.055C192.964 120.426 193.449 119.735 194.023 118.983C194.598 118.231 195.24 117.521 195.951 116.851C196.676 116.181 197.462 115.6 198.31 115.107C199.157 114.602 200.066 114.287 201.037 114.164C202.104 114.109 203.102 114.342 204.031 114.861C204.414 115.08 204.79 115.374 205.159 115.743C205.542 116.099 205.897 116.557 206.226 117.117C206.54 117.691 206.807 118.375 207.025 119.168C207.244 119.947 207.395 120.87 207.477 121.937Z" fill="black"/>
<path d="M210.649 114.718L210.813 105.735L214.895 105.469L214.751 114.636L222.708 114.369L222.4 118.204L214.71 118.409L214.546 136.292L210.219 136.395L210.567 118.532L203.472 118.696L203.554 114.923L210.649 114.718Z" fill="black"/>
<path d="M221.882 118.081V114.164L226.763 114.205C226.913 112.77 227.2 111.389 227.624 110.062C228.062 108.723 228.677 107.54 229.47 106.515C230.249 105.489 231.233 104.669 232.423 104.054C233.612 103.438 235.041 103.131 236.709 103.131C237.611 103.131 238.562 103.288 239.56 103.603C240.571 103.903 241.569 104.484 242.554 105.346L240.523 108.791C239.785 108.271 239.067 107.909 238.37 107.704C237.673 107.485 237.051 107.349 236.504 107.294C235.861 107.226 235.26 107.246 234.699 107.355C234.152 107.492 233.667 107.711 233.243 108.012C232.819 108.299 232.45 108.709 232.136 109.242C231.534 110.254 231.11 111.922 230.864 114.246L239.56 114.287L239.108 118.327L230.618 118.204V120.009C230.604 120.911 230.598 121.827 230.598 122.757C230.598 123.673 230.598 124.603 230.598 125.546L230.577 130.898C230.577 131.842 230.57 132.799 230.557 133.77C230.557 134.727 230.55 135.656 230.536 136.559L226.291 136.641C226.318 135.15 226.339 133.77 226.353 132.498C226.366 131.213 226.38 130.037 226.394 128.971C226.407 127.904 226.421 126.934 226.435 126.059C226.448 125.17 226.462 124.37 226.476 123.659L226.537 119.578V118.163L221.882 118.081Z" fill="black"/>
<path d="M260.563 125.054C260.563 126.776 260.276 128.369 259.702 129.832C259.128 131.295 258.342 132.566 257.344 133.646C256.346 134.727 255.177 135.567 253.837 136.169C252.497 136.784 251.068 137.092 249.551 137.092C246.447 137.092 243.87 135.984 241.819 133.77C240.821 132.717 240.035 131.452 239.461 129.976C238.887 128.499 238.6 126.858 238.6 125.054C238.6 123.235 238.887 121.588 239.461 120.111C240.035 118.621 240.821 117.35 241.819 116.297C242.804 115.244 243.959 114.431 245.285 113.856C246.611 113.282 248.033 112.995 249.551 112.995C251.068 112.995 252.497 113.303 253.837 113.918C255.177 114.52 256.346 115.354 257.344 116.42C258.342 117.5 259.128 118.778 259.702 120.255C260.276 121.718 260.563 123.317 260.563 125.054ZM256.236 125.013C256.236 124.028 256.113 123.03 255.867 122.019C255.621 121.007 255.231 120.104 254.698 119.312C254.165 118.505 253.475 117.855 252.627 117.363C251.779 116.857 250.754 116.604 249.551 116.604C248.389 116.604 247.391 116.857 246.557 117.363C245.723 117.855 245.039 118.505 244.506 119.312C243.973 120.104 243.583 121.007 243.337 122.019C243.091 123.03 242.968 124.028 242.968 125.013C242.968 125.997 243.098 126.988 243.357 127.986C243.631 128.971 244.041 129.866 244.588 130.673C245.135 131.466 245.818 132.122 246.639 132.642C247.473 133.147 248.443 133.4 249.551 133.4C250.713 133.4 251.711 133.147 252.545 132.642C253.393 132.122 254.09 131.466 254.637 130.673C255.184 129.866 255.587 128.971 255.847 127.986C256.106 126.988 256.236 125.997 256.236 125.013Z" fill="black"/>
<path d="M275.628 131.924L275.095 136.005C274.124 135.991 273.263 135.827 272.511 135.513C271.772 135.198 271.123 134.788 270.562 134.282C269.988 133.79 269.496 133.223 269.086 132.58C268.689 131.938 268.354 131.288 268.081 130.632C267.425 129.073 267.015 127.31 266.851 125.341L267.404 99.3369H271.69L271.506 106.022C271.479 107.034 271.451 108.005 271.424 108.935C271.396 109.851 271.369 110.726 271.342 111.56C271.301 113.214 271.26 114.704 271.219 116.03C271.191 117.343 271.164 118.498 271.137 119.496C271.068 121.861 271.027 123.714 271.014 125.054C271.027 126.312 271.212 127.446 271.567 128.458C271.868 129.388 272.34 130.194 272.982 130.878C273.625 131.548 274.507 131.896 275.628 131.924Z" fill="black"/>
<path d="M285.531 107.663C285.531 108.456 285.237 109.14 284.649 109.714C284.075 110.274 283.385 110.555 282.578 110.555C281.785 110.555 281.102 110.274 280.527 109.714C279.967 109.14 279.687 108.456 279.687 107.663C279.687 106.856 279.967 106.166 280.527 105.592C281.102 105.004 281.785 104.71 282.578 104.71C283.385 104.71 284.075 105.004 284.649 105.592C285.237 106.166 285.531 106.856 285.531 107.663ZM280.322 115.046L284.567 114.882L284.362 124.726C284.294 127.433 284.253 129.559 284.239 131.104C284.198 132.99 284.178 134.474 284.178 135.554H279.974C279.987 134.815 280.001 134.009 280.015 133.134C280.042 132.245 280.062 131.295 280.076 130.283C280.104 128.52 280.145 126.38 280.199 123.864L280.322 115.046Z" fill="black"/>
<path d="M313.563 125.054C313.563 126.776 313.276 128.369 312.702 129.832C312.128 131.295 311.342 132.566 310.344 133.646C309.346 134.727 308.177 135.567 306.837 136.169C305.497 136.784 304.068 137.092 302.551 137.092C299.447 137.092 296.87 135.984 294.819 133.77C293.821 132.717 293.035 131.452 292.461 129.976C291.887 128.499 291.6 126.858 291.6 125.054C291.6 123.235 291.887 121.588 292.461 120.111C293.035 118.621 293.821 117.35 294.819 116.297C295.804 115.244 296.959 114.431 298.285 113.856C299.611 113.282 301.033 112.995 302.551 112.995C304.068 112.995 305.497 113.303 306.837 113.918C308.177 114.52 309.346 115.354 310.344 116.42C311.342 117.5 312.128 118.778 312.702 120.255C313.276 121.718 313.563 123.317 313.563 125.054ZM309.236 125.013C309.236 124.028 309.113 123.03 308.867 122.019C308.621 121.007 308.231 120.104 307.698 119.312C307.165 118.505 306.475 117.855 305.627 117.363C304.779 116.857 303.754 116.604 302.551 116.604C301.389 116.604 300.391 116.857 299.557 117.363C298.723 117.855 298.039 118.505 297.506 119.312C296.973 120.104 296.583 121.007 296.337 122.019C296.091 123.03 295.968 124.028 295.968 125.013C295.968 125.997 296.098 126.988 296.357 127.986C296.631 128.971 297.041 129.866 297.588 130.673C298.135 131.466 298.818 132.122 299.639 132.642C300.473 133.147 301.443 133.4 302.551 133.4C303.713 133.4 304.711 133.147 305.545 132.642C306.393 132.122 307.09 131.466 307.637 130.673C308.184 129.866 308.587 128.971 308.847 127.986C309.106 126.988 309.236 125.997 309.236 125.013Z" fill="black"/>
</svg>
